<svg id="Layer_1" enable-background="new 0 0 512 512" height="512" viewBox="0 0 512 512" width="512" xmlns="http://www.w3.org/2000/svg"><g><path d="m82.304 68.809h-46.61c-7.021 0-12.712 5.691-12.712 12.712v410.126c0 7.021 5.691 12.712 12.712 12.712h440.613c7.021 0 12.712-5.691 12.712-12.712v-410.126c0-7.021-5.691-12.712-12.712-12.712h-48.429z" fill="#ff303f"/><path d="m476.307 68.809h-217.768v435.55h217.767c7.021 0 12.712-5.691 12.712-12.712v-410.126c0-7.021-5.691-12.712-12.711-12.712z" fill="#b2003a"/><path d="m101.121 15h309.023v157.248h-309.023z" fill="#fff5f5"/><path d="m103.726 308.883h302.786v62.706h-302.786z" fill="#c8e2e7"/><path d="m103.726 371.589h302.786v125.411h-302.786z" fill="#003140"/><path d="m393.084 246.177h-275.929c-7.416 0-13.429 6.012-13.429 13.429v49.277h302.786v-49.277c.001-7.417-6.012-13.429-13.428-13.429z" fill="#fff5f5"/><path d="m258.539 15h151.604v157.248h-151.604z" fill="#dfebf1"/><path d="m393.084 246.177h-134.545v62.706h147.973v-49.277c.001-7.417-6.012-13.429-13.428-13.429z" fill="#ebebf0"/><path d="m258.539 308.883h147.973v62.706h-147.973z" fill="#add3d8"/><path d="m258.539 371.589h147.973v125.411h-147.973z" fill="#001e2a"/><path d="m410.144 187.248h-309.023c-8.284 0-15-6.716-15-15v-157.248c0-8.284 6.716-15 15-15h309.023c8.284 0 15 6.716 15 15v157.248c0 8.284-6.716 15-15 15zm-294.023-30h279.023v-127.248h-279.023z" fill="#004960"/><path d="m410.144 0h-151.605v30h136.605v127.248h-136.605v30h151.605c8.284 0 15-6.716 15-15v-157.248c0-8.284-6.716-15-15-15z" fill="#003140"/><path d="m322.505 106.345c-7.411 0-13.362-6.369-12.666-13.921.606-6.577 6.351-11.399 12.954-11.523 8.2-.154 14.791-6.89 14.711-15.146-.082-8.499-7.524-15.04-16.021-14.84-17.839.421-33.001 11.834-38.974 27.709h-49.194c-.941 0-1.77-.58-2.134-1.448-6.331-15.117-21.107-25.852-38.398-26.26-8.497-.2-15.939 6.34-16.021 14.84-.08 8.256 6.511 14.991 14.711 15.146 6.603.125 12.348 4.947 12.954 11.523.696 7.552-5.255 13.921-12.666 13.921-8.364 0-15.129 6.845-14.998 15.239.132 8.449 7.596 14.952 16.043 14.748 17.281-.417 32.047-11.15 38.375-26.26.363-.868 1.193-1.448 2.134-1.448h49.194c5.971 15.869 21.123 27.278 38.951 27.709 8.447.204 15.911-6.3 16.043-14.748.13-8.395-6.635-15.241-14.998-15.241z" fill="#add3d8"/><path d="m322.505 80.903c8.364 0 15.129-6.845 14.998-15.239-.132-8.449-7.596-14.952-16.043-14.748-17.13.413-31.789 10.963-38.208 25.865-.485 1.125-1.602 1.843-2.827 1.843h-21.885v30h21.885c1.225 0 2.343.719 2.827 1.843 6.422 14.909 21.091 25.461 38.231 25.866 8.497.2 15.938-6.34 16.021-14.839.08-8.256-6.511-14.992-14.712-15.146-6.603-.124-12.348-4.947-12.954-11.523-.696-7.552 5.255-13.922 12.667-13.922z" fill="#81a1b1"/><g><path d="m497 512h-482c-8.284 0-15-6.716-15-15s6.716-15 15-15h482c8.284 0 15 6.716 15 15s-6.716 15-15 15z" fill="#7fe881"/></g><path d="m497 482h-238.461v30h238.461c8.284 0 15-6.716 15-15s-6.716-15-15-15z" fill="#00d16c"/></g></svg>